<?xml version="1.0" encoding="UTF-8"?>
<svg width="700pt" height="700pt" version="1.1" viewBox="0 0 700 700" xmlns="http://www.w3.org/2000/svg">
 <g>
  <path d="m577.5 192.5c-9.6641 0-17.5 7.8281-17.5 17.5v17.5h-17.5c-9.6641 0-17.5 7.8281-17.5 17.5s7.8359 17.5 17.5 17.5h35c9.6641 0 17.5-7.8281 17.5-17.5v-35c0-9.6719-7.8359-17.5-17.5-17.5z"/>
  <path d="m577.5 105c-9.6641 0-17.5 7.8281-17.5 17.5v35c0 9.6719 7.8359 17.5 17.5 17.5s17.5-7.8281 17.5-17.5v-35c0-9.6719-7.8359-17.5-17.5-17.5z"/>
  <path d="m157.5 227.5h-17.5v-17.5c0-9.6719-7.8359-17.5-17.5-17.5s-17.5 7.8281-17.5 17.5v35c0 9.6719 7.8359 17.5 17.5 17.5h35c9.6641 0 17.5-7.8281 17.5-17.5s-7.8359-17.5-17.5-17.5z"/>
  <path d="m122.5 175c9.6641 0 17.5-7.8281 17.5-17.5v-35c0-9.6719-7.8359-17.5-17.5-17.5s-17.5 7.8281-17.5 17.5v35c0 9.6719 7.8359 17.5 17.5 17.5z"/>
  <path d="m577.5 297.5h-35c-9.6641 0-17.5 7.8281-17.5 17.5s7.8359 17.5 17.5 17.5h17.5v17.5c0 9.6719 7.8359 17.5 17.5 17.5s17.5-7.8281 17.5-17.5v-35c0-9.6719-7.8359-17.5-17.5-17.5z"/>
  <path d="m577.5 385c-9.6641 0-17.5 7.8281-17.5 17.5v35c0 9.6719 7.8359 17.5 17.5 17.5s17.5-7.8281 17.5-17.5v-35c0-9.6719-7.8359-17.5-17.5-17.5z"/>
  <path d="m157.5 297.5h-35c-9.6641 0-17.5 7.8281-17.5 17.5v35c0 9.6719 7.8359 17.5 17.5 17.5s17.5-7.8281 17.5-17.5v-17.5h17.5c9.6641 0 17.5-7.8281 17.5-17.5s-7.8359-17.5-17.5-17.5z"/>
  <path d="m122.5 385c-9.6641 0-17.5 7.8281-17.5 17.5v35c0 9.6719 7.8359 17.5 17.5 17.5s17.5-7.8281 17.5-17.5v-35c0-9.6719-7.8359-17.5-17.5-17.5z"/>
  <path d="m455 35h-210c-28.949 0-52.5 23.551-52.5 52.5v122.5h17.5v-122.5c0-19.305 15.695-35 35-35h210c19.305 0 35 15.695 35 35v122.5h17.5v-122.5c0-28.949-23.551-52.5-52.5-52.5z"/>
  <path d="m490 472.5c0 19.305-15.695 35-35 35h-210c-19.305 0-35-15.695-35-35v-122.5h-17.5v122.5c0 28.949 23.551 52.5 52.5 52.5h210c28.949 0 52.5-23.551 52.5-52.5v-122.5h-17.5z"/>
  <path d="m490 262.5c9.6641 0 17.5-7.8281 17.5-17.5s-7.8359-17.5-17.5-17.5h-17.5v-140c0-9.6641-7.8359-17.5-17.5-17.5h-70c0 19.328-15.672 35-35 35s-35-15.672-35-35h-70c-9.6641 0-17.5 7.8359-17.5 17.5v140h-17.5c-9.6641 0-17.5 7.8281-17.5 17.5s7.8359 17.5 17.5 17.5h17.5v35h-17.5c-9.6641 0-17.5 7.8281-17.5 17.5s7.8359 17.5 17.5 17.5h17.5v140c0 9.6641 7.8359 17.5 17.5 17.5h210c9.6641 0 17.5-7.8359 17.5-17.5v-140h17.5c9.6641 0 17.5-7.8281 17.5-17.5s-7.8359-17.5-17.5-17.5h-17.5v-35zm-178.14 54.531c3.707 3.0938 4.2031 8.6133 1.1094 12.32-1.7266 2.0664-4.2227 3.1445-6.7148 3.1445-1.9844 0-3.9648-0.66797-5.6055-2.0352l-52.5-43.75c-2-1.6562-3.1445-4.1172-3.1445-6.7148s1.1445-5.0586 3.1445-6.7148l52.5-43.75c3.6914-3.0938 9.2305-2.5977 12.32 1.1094 3.0938 3.707 2.5977 9.2305-1.1094 12.32l-44.434 37.035zm140-30.316-52.5 43.75c-1.6406 1.3672-3.625 2.0352-5.6055 2.0352-2.4961 0-4.9922-1.0781-6.7148-3.1445-3.0938-3.707-2.5977-9.2305 1.1094-12.32l44.434-37.035-44.434-37.035c-3.707-3.0938-4.2031-8.6133-1.1094-12.32s8.6289-4.2031 12.32-1.1094l52.5 43.75c2 1.6523 3.1445 4.1133 3.1445 6.7109s-1.1445 5.0586-3.1445 6.7188z"/>
 </g>
</svg>
